<mxfile host="app.diagrams.net" modified="2021-08-05T06:46:11.514Z" agent="5.0 (Windows NT 10.0; Win64; x64) AppleWebKit/537.36 (KHTML, like Gecko) Chrome/92.0.4515.131 Safari/537.36" etag="TjLLJCX0t7BJWfY-fiqf" version="14.9.3" type="github">
  <diagram id="R5d1Z3BQt2HOlfXYR7gw" name="第 1 页">
    <mxGraphModel dx="1021" dy="579" grid="1" gridSize="10" guides="1" tooltips="1" connect="1" arrows="1" fold="1" page="1" pageScale="1" pageWidth="827" pageHeight="1169" math="0" shadow="0">
      <root>
        <mxCell id="0" />
        <mxCell id="1" parent="0" />
        <mxCell id="-DP2T5iKThtB0EdcRXBg-2" value="" style="rounded=0;whiteSpace=wrap;html=1;" vertex="1" parent="1">
          <mxGeometry x="120" y="30" width="620" height="920" as="geometry" />
        </mxCell>
        <mxCell id="-DP2T5iKThtB0EdcRXBg-3" value="" style="rounded=0;whiteSpace=wrap;html=1;" vertex="1" parent="1">
          <mxGeometry x="120" y="990" width="630" height="60" as="geometry" />
        </mxCell>
        <mxCell id="-DP2T5iKThtB0EdcRXBg-4" value="" style="rounded=0;whiteSpace=wrap;html=1;" vertex="1" parent="1">
          <mxGeometry x="220" y="1000" width="510" height="40" as="geometry" />
        </mxCell>
        <mxCell id="-DP2T5iKThtB0EdcRXBg-5" value="后端接口" style="text;html=1;align=center;verticalAlign=middle;resizable=0;points=[];autosize=1;strokeColor=none;" vertex="1" parent="1">
          <mxGeometry x="400" y="1010" width="60" height="20" as="geometry" />
        </mxCell>
        <mxCell id="-DP2T5iKThtB0EdcRXBg-6" value="前端" style="text;html=1;strokeColor=none;fillColor=none;align=center;verticalAlign=middle;whiteSpace=wrap;rounded=0;" vertex="1" parent="1">
          <mxGeometry x="130" y="40" width="40" height="20" as="geometry" />
        </mxCell>
        <mxCell id="-DP2T5iKThtB0EdcRXBg-19" style="edgeStyle=orthogonalEdgeStyle;rounded=0;orthogonalLoop=1;jettySize=auto;html=1;exitX=0.75;exitY=1;exitDx=0;exitDy=0;entryX=0.701;entryY=-0.032;entryDx=0;entryDy=0;entryPerimeter=0;" edge="1" parent="1" source="-DP2T5iKThtB0EdcRXBg-7" target="-DP2T5iKThtB0EdcRXBg-3">
          <mxGeometry relative="1" as="geometry" />
        </mxCell>
        <mxCell id="-DP2T5iKThtB0EdcRXBg-7" value="" style="rounded=0;whiteSpace=wrap;html=1;" vertex="1" parent="1">
          <mxGeometry x="220" y="890" width="490" height="40" as="geometry" />
        </mxCell>
        <mxCell id="-DP2T5iKThtB0EdcRXBg-8" value="网络" style="text;html=1;strokeColor=none;fillColor=none;align=center;verticalAlign=middle;whiteSpace=wrap;rounded=0;" vertex="1" parent="1">
          <mxGeometry x="150" y="900" width="40" height="20" as="geometry" />
        </mxCell>
        <mxCell id="-DP2T5iKThtB0EdcRXBg-13" style="edgeStyle=orthogonalEdgeStyle;rounded=0;orthogonalLoop=1;jettySize=auto;html=1;exitX=0.5;exitY=1;exitDx=0;exitDy=0;entryX=0.327;entryY=0.026;entryDx=0;entryDy=0;entryPerimeter=0;" edge="1" parent="1" source="-DP2T5iKThtB0EdcRXBg-11" target="-DP2T5iKThtB0EdcRXBg-3">
          <mxGeometry relative="1" as="geometry" />
        </mxCell>
        <mxCell id="-DP2T5iKThtB0EdcRXBg-11" value="POST请求" style="rounded=0;whiteSpace=wrap;html=1;" vertex="1" parent="1">
          <mxGeometry x="240" y="895" width="100" height="30" as="geometry" />
        </mxCell>
        <mxCell id="-DP2T5iKThtB0EdcRXBg-14" style="edgeStyle=orthogonalEdgeStyle;rounded=0;orthogonalLoop=1;jettySize=auto;html=1;exitX=0.5;exitY=1;exitDx=0;exitDy=0;" edge="1" parent="1" source="-DP2T5iKThtB0EdcRXBg-12">
          <mxGeometry relative="1" as="geometry">
            <mxPoint x="471" y="990" as="targetPoint" />
            <Array as="points">
              <mxPoint x="410" y="957" />
              <mxPoint x="471" y="957" />
            </Array>
          </mxGeometry>
        </mxCell>
        <mxCell id="-DP2T5iKThtB0EdcRXBg-12" value="GET请求" style="rounded=0;whiteSpace=wrap;html=1;" vertex="1" parent="1">
          <mxGeometry x="360" y="895" width="100" height="30" as="geometry" />
        </mxCell>
        <mxCell id="-DP2T5iKThtB0EdcRXBg-18" value="其他请求(PUT,PATCH,DELETE等)" style="rounded=0;whiteSpace=wrap;html=1;" vertex="1" parent="1">
          <mxGeometry x="500" y="895" width="190" height="30" as="geometry" />
        </mxCell>
        <mxCell id="-DP2T5iKThtB0EdcRXBg-20" value="" style="rounded=0;whiteSpace=wrap;html=1;" vertex="1" parent="1">
          <mxGeometry x="220" y="820" width="490" height="40" as="geometry" />
        </mxCell>
        <mxCell id="-DP2T5iKThtB0EdcRXBg-21" value="Egg" style="text;html=1;strokeColor=none;fillColor=none;align=center;verticalAlign=middle;whiteSpace=wrap;rounded=0;" vertex="1" parent="1">
          <mxGeometry x="150" y="830" width="40" height="20" as="geometry" />
        </mxCell>
      </root>
    </mxGraphModel>
  </diagram>
</mxfile>
